<svg data-v-423bf9ae="" xmlns="http://www.w3.org/2000/svg" viewBox="0 0 363 90" class="iconLeft"><!----><!----><!----><g data-v-423bf9ae="" id="7ab0fa06-1b68-44b4-bc03-8ffe79fb9cdd" fill="white" transform="matrix(5.357142948374458,0,0,5.357142948374458,117.8910142977017,6.750000540699283)"><path d="M5.50 8.69L1.95 8.69C2.01 8.26 2.22 7.92 2.58 7.66C2.94 7.41 3.36 7.28 3.82 7.28C4.81 7.28 5.37 7.75 5.50 8.69ZM1.92 9.73L7.04 9.73C7.06 9.61 7.07 9.45 7.07 9.25C7.07 8.25 6.78 7.45 6.19 6.88C5.60 6.31 4.81 6.02 3.82 6.02C2.81 6.02 2.00 6.33 1.36 6.96C0.73 7.59 0.42 8.40 0.42 9.38C0.42 10.38 0.72 11.19 1.32 11.81C1.93 12.43 2.76 12.74 3.82 12.74C5.23 12.74 6.26 12.24 6.92 11.24L5.81 10.56C5.46 11.13 4.79 11.41 3.82 11.41C3.31 11.41 2.88 11.27 2.53 10.98C2.19 10.69 1.98 10.27 1.92 9.73ZM11.21 7.49L7.49 12.60L13.37 12.60L13.37 11.27L10.07 11.27L13.79 6.16L7.91 6.16L7.91 7.49ZM22.02 3.36L22.74 2.20C22.41 1.76 21.94 1.54 21.32 1.54C20.59 1.54 20.04 1.75 19.67 2.16C19.30 2.57 19.11 3.15 19.11 3.92L19.11 6.16L18.34 6.16L18.34 7.49L19.11 7.49L19.11 12.60L20.58 12.60L20.58 7.49L22.19 7.49L22.19 6.16L20.58 6.16L20.58 4.06C20.58 3.69 20.66 3.41 20.81 3.22C20.96 3.03 21.16 2.94 21.39 2.94C21.64 2.94 21.85 3.08 22.02 3.36ZM22.88 9.38C22.88 10.40 23.21 11.21 23.89 11.82C24.57 12.43 25.41 12.74 26.42 12.74C27.43 12.74 28.27 12.43 28.95 11.82C29.62 11.21 29.96 10.40 29.96 9.38C29.96 8.36 29.62 7.55 28.95 6.94C28.27 6.33 27.43 6.02 26.42 6.02C25.41 6.02 24.57 6.33 23.89 6.94C23.21 7.55 22.88 8.36 22.88 9.38ZM24.36 9.38C24.36 8.75 24.55 8.26 24.93 7.90C25.32 7.53 25.81 7.35 26.42 7.35C27.02 7.35 27.52 7.53 27.90 7.90C28.28 8.26 28.48 8.75 28.48 9.38C28.48 10.01 28.28 10.50 27.90 10.86C27.52 11.23 27.02 11.41 26.42 11.41C25.81 11.41 25.32 11.23 24.93 10.86C24.55 10.50 24.36 10.01 24.36 9.38ZM30.80 9.38C30.80 10.40 31.14 11.21 31.81 11.82C32.49 12.43 33.33 12.74 34.34 12.74C35.35 12.74 36.19 12.43 36.87 11.82C37.55 11.21 37.88 10.40 37.88 9.38C37.88 8.36 37.55 7.55 36.87 6.94C36.19 6.33 35.35 6.02 34.34 6.02C33.33 6.02 32.49 6.33 31.81 6.94C31.14 7.55 30.80 8.36 30.80 9.38ZM32.28 9.38C32.28 8.75 32.48 8.26 32.86 7.90C33.24 7.53 33.74 7.35 34.34 7.35C34.95 7.35 35.44 7.53 35.83 7.90C36.21 8.26 36.40 8.75 36.40 9.38C36.40 10.01 36.21 10.50 35.83 10.86C35.44 11.23 34.95 11.41 34.34 11.41C33.74 11.41 33.24 11.23 32.86 10.86C32.48 10.50 32.28 10.01 32.28 9.38ZM38.72 9.38C38.72 10.44 39.04 11.27 39.66 11.86C40.29 12.45 41.06 12.74 41.99 12.74C42.98 12.74 43.74 12.31 44.25 11.45L44.25 12.60L45.72 12.60L45.72 1.68L44.25 1.68L44.25 7.31C43.74 6.45 42.98 6.02 41.99 6.02C41.06 6.02 40.29 6.31 39.66 6.90C39.04 7.49 38.72 8.32 38.72 9.38ZM40.21 9.38C40.21 8.73 40.40 8.22 40.78 7.87C41.15 7.52 41.65 7.35 42.27 7.35C42.82 7.35 43.29 7.52 43.67 7.85C44.06 8.18 44.25 8.69 44.25 9.38C44.25 10.07 44.06 10.58 43.67 10.91C43.29 11.24 42.82 11.41 42.27 11.41C41.65 11.41 41.15 11.23 40.78 10.88C40.40 10.54 40.21 10.03 40.21 9.38Z"></path></g><!----><g data-v-423bf9ae="" id="c83caf6b-c021-4fdc-9827-9a74c6bcd924" transform="matrix(1.5,0,0,1.5,-24.38001251220703,-28.999374389648438)" stroke="none" fill="white"><path d="M71.841 38.928a5.805 5.805 0 0 0-6.217-5.347 5.808 5.808 0 0 0-5.348 6.218 5.803 5.803 0 0 0 4.693 5.262l1.335 17.752a1.564 1.564 0 0 0 1.669 1.424 1.537 1.537 0 0 0 1.064-.541c.271-.316.401-.717.367-1.127l-1.341-17.768a5.817 5.817 0 0 0 3.778-5.873zm-5.99-2.319a2.748 2.748 0 0 1 2.944 2.53 2.747 2.747 0 0 1-2.531 2.942 2.746 2.746 0 0 1-2.943-2.53 2.746 2.746 0 0 1 2.53-2.942zM82.085 45.15a1.548 1.548 0 0 0-1.165.269c-.339.242-.562.6-.628 1.005l-.422 2.49c-.16.941-.709 1.661-1.49 2l.795-4.687a1.561 1.561 0 0 0-1.274-1.787 1.551 1.551 0 0 0-1.792 1.274l-.793 4.681c-.627-.578-.909-1.438-.748-2.379l.425-2.5a1.563 1.563 0 0 0-1.276-1.784 1.542 1.542 0 0 0-1.164.268 1.534 1.534 0 0 0-.628 1.006l-.425 2.509a5.801 5.801 0 0 0 3.288 6.237l-2.979 17.551a1.564 1.564 0 0 0 1.276 1.784c.411.069.824-.026 1.164-.269.339-.242.562-.6.628-1.005l2.977-17.569c2.544-.28 4.648-2.245 5.082-4.811l.424-2.496a1.563 1.563 0 0 0-1.275-1.787z"></path><path d="M63.314 63.039l-.265-3.517a19.007 19.007 0 0 1-2.99 3.92c-7.423 7.423-19.458 7.423-26.88 0-7.424-7.425-7.424-19.459 0-26.881 6.887-6.888 17.74-7.373 25.2-1.478a8.896 8.896 0 0 1 1.485-1.953c-8.423-6.628-20.655-6.073-28.421 1.694-8.382 8.381-8.382 21.969 0 30.352 8.38 8.381 21.97 8.381 30.352 0a21.825 21.825 0 0 0 1.584-1.78c-.02-.12-.054-.234-.065-.357z"></path><g><path d="M69.512 66.91a4.51 4.51 0 0 1-1.312.319 4.914 4.914 0 0 1-.343.013c-1.257 0-2.402-.537-3.235-1.391-.336.38-.659.768-1.022 1.131-9.379 9.378-24.585 9.378-33.963 0-9.379-9.38-9.379-24.584 0-33.963 8.861-8.861 22.919-9.338 32.354-1.453a8.76 8.76 0 0 1 4.073-1.002c1.575 0 3.06.432 4.35 1.174a30.39 30.39 0 0 0-2.581-2.953c-11.716-11.715-30.712-11.715-42.427 0-11.716 11.716-11.716 30.711 0 42.428 11.715 11.715 30.711 11.714 42.427-.001.4-.4.784-.811 1.157-1.227l.522-3.075z"></path></g></g><!----></svg>